<svg id="Layer_2" data-name="Layer 2" xmlns="http://www.w3.org/2000/svg" viewBox="0 0 2280 2280"><defs><style>.cls-1,.cls-13,.cls-16,.cls-2{fill:#f0f3fa;}.cls-10,.cls-11,.cls-16,.cls-2,.cls-7,.cls-8,.cls-9{stroke:#f0f3fa;}.cls-10,.cls-11,.cls-14,.cls-15,.cls-16,.cls-2,.cls-7,.cls-8,.cls-9{stroke-linecap:round;}.cls-10,.cls-11,.cls-14,.cls-15,.cls-2,.cls-7,.cls-8,.cls-9{stroke-linejoin:round;}.cls-2{stroke-width:120px;}.cls-3{fill:#5881c1;}.cls-4{fill:#12213a;}.cls-5{fill:#2f4976;}.cls-6{opacity:0.8;}.cls-10,.cls-11,.cls-12,.cls-7,.cls-8,.cls-9{fill:none;}.cls-10,.cls-11,.cls-7,.cls-8,.cls-9{stroke-width:8px;}.cls-7{stroke-dasharray:15 50;}.cls-8{stroke-dasharray:15 62;}.cls-9{stroke-dasharray:15 55;}.cls-10{stroke-dasharray:15 58;}.cls-11{stroke-dasharray:15.04 60.14;}.cls-12{stroke:#12213a;stroke-width:15px;}.cls-12,.cls-16{stroke-miterlimit:10;}.cls-13{font-size:95px;font-family:FranxurterTotallyMedium, Franxurter Totally;}.cls-14{fill:#fdbe59;}.cls-14,.cls-15{stroke:#f6851f;}.cls-14,.cls-15,.cls-16{stroke-width:5px;}.cls-15,.cls-17{fill:#f6851f;}.cls-17{font-size:1000px;font-family:KitchakanMonDEMO-Medium, Kitchakan Mon DEMO;font-weight:500;}.cls-18{letter-spacing:0em;}</style></defs><path class="cls-1" d="M1140,1963a820.54,820.54,0,1,1,320.36-64.69A817.8,817.8,0,0,1,1140,1963Z"/><path class="cls-1" d="M1140,347c438,0,793,355,793,793s-355,793-793,793-793-355-793-793,355-793,793-793m0-60a859,859,0,0,0-171.85,17.33A848.92,848.92,0,0,0,663,432.71,855.2,855.2,0,0,0,354.06,808a848.49,848.49,0,0,0-49.73,160.19,860.73,860.73,0,0,0,0,343.7A848.92,848.92,0,0,0,432.71,1617a855.2,855.2,0,0,0,375.25,309,848.49,848.49,0,0,0,160.19,49.73,860.73,860.73,0,0,0,343.7,0A848.92,848.92,0,0,0,1617,1847.29a855.2,855.2,0,0,0,309-375.25,848.49,848.49,0,0,0,49.73-160.19,860.73,860.73,0,0,0,0-343.7A848.92,848.92,0,0,0,1847.29,663a855.2,855.2,0,0,0-375.25-309,848.49,848.49,0,0,0-160.19-49.73A859,859,0,0,0,1140,287Z"/><polyline class="cls-2" points="1900.49 2004.2 1654.31 1914.16 1737.25 1687.39 1737.9 1687.63 1906.01 1609.56 2152.19 1699.61 2069.25 1926.37 1901.13 2004.44"/><path class="cls-1" d="M2071.11,1784.45c98.83-171.16-240-555-757.68-853.93S307.79,509.17,209,680.34c-100.8,170,234.34,555,748.56,859.89S1970.31,1954.47,2071.11,1784.45Z"/><path class="cls-1" d="M2035.65,1763.71c1-1.74,2-3.44,3-5.16.88-1.89,1.82-3.75,2.74-5.65.73-2,1.56-3.94,2.32-5.94.6-2.09,1.28-4.15,1.91-6.25a105,105,0,0,0,3.28-27.62,161.76,161.76,0,0,0-3.27-30.38l-.81-3.9c-.26-1.29-.52-2.59-.89-3.9l-2-7.83c-1.6-5.24-3.09-10.47-5-15.7-1.75-5.24-4-10.45-6-15.66l-3.43-7.78c-.58-1.3-1.14-2.6-1.74-3.89l-1.87-3.86c-1.27-2.57-2.46-5.16-3.77-7.72l-4-7.65c-1.31-2.56-2.74-5.08-4.17-7.61l-4.31-7.57a641.21,641.21,0,0,0-39.46-58.65c-14.28-19-29.54-37.55-45.42-55.63s-32.41-35.71-49.42-53c-34-34.51-70-67.33-107.2-98.93-74.44-63.12-153.66-121-235.58-174.75q-30.78-20.09-62-39.42c-10.38-6.49-20.91-12.77-31.36-19.14s-21-12.58-31.62-18.72c-21.11-12.4-42.45-24.45-63.84-36.34l-16.1-8.84c-5.35-3-10.77-5.81-16.16-8.72-10.75-5.83-21.61-11.49-32.44-17.19-87.09-45.43-175.74-87.51-265.65-125.19s-181.11-71.1-272.74-98q-34.35-10.07-68.7-18.79t-68.49-15.65c-22.74-4.64-45.38-8.65-67.77-11.88s-44.51-5.68-66.07-7.1a573.93,573.93,0,0,0-62.15-.86c-9.72.56-19.32,1.21-28.15,2.46l-3.36.42c-1.09.15-2.14.35-3.21.52l-6.38,1-6,1.22-1.51.29c-.49.11-1,.24-1.42.35l-2.83.69a122.27,122.27,0,0,0-19.41,6.23,51,51,0,0,0-11.45,6.45c-2.31,1.87-2.88,3.15-2.43,3.45.2.1.12.05.47.08s.29-.15.66-.18a.89.89,0,0,0,.33-.19l.06-.06s.05,0,.07,0l.11.1.14.1v0l.07,0,.11.08c.06.05,0,.05,0,0s-.05,0,0,0l0-.06a.46.46,0,0,0,.07-.14.61.61,0,0,0,0-.33c0-.07,0-.08,0-.1a.13.13,0,0,0,0-.08.27.27,0,0,0-.06-.2c0-.06,0,0,0,0h-.14c-.05,0,0,0,0,.09a.59.59,0,0,1,0,.14.66.66,0,0,1-.17.25c-.06,0,0,.13,0,.23s0,.18,0,.28a2.25,2.25,0,0,1-.17.54l-.06.14V747c0,.14,0,.28,0,.43a9.59,9.59,0,0,0-.2,1.92c0,.39,0,.78-.06,1.17l-.07.59,0,.73c0,.49,0,1,0,1.48v.74c0,.12,0,.24,0,.37l.05.44c.12,1.17.21,2.35.24,3.53.21,1.34.39,2.69.55,4a17.19,17.19,0,0,0,.36,2.17l.42,2.26.19,1.13a8.12,8.12,0,0,0,.24,1.17l.58,2.46c.38,1.64.68,3.25,1.24,5l1.45,5.3q.9,2.78,1.77,5.56l.42,1.4.53,1.45,1,2.9,1,2.92c.31,1,.78,2,1.15,3l2.37,6,2.66,6.19,1.32,3.11,1.47,3.16,2.92,6.35,3.19,6.44,1.58,3.24,1.71,3.27c9,17.42,19.47,35.36,31,53.4s24.06,36.19,37.34,54.25,27.38,35.94,42.08,53.64,30,35.18,45.76,52.49,32,34.35,48.65,51.19c33.24,33.68,68,66.49,103.84,98.42q27,23.87,54.57,47.23t56.06,45.92c75.62,60.45,154.78,117.31,236.39,170.87s165.82,103.44,252.27,148.93c43.24,22.73,87,44.42,131.39,64.63s89.29,39.17,134.76,56.26,91.45,32.58,137.84,45.52q34.77,9.75,69.82,17.36c23.34,5,46.74,9.37,70.06,12.56a671.7,671.7,0,0,0,69.53,6c11.42.24,22.85.36,34-.22,2.8-.1,5.61-.2,8.36-.44l8.32-.59c5.43-.62,11-1,16.28-1.89,5.41-.67,10.6-1.72,15.86-2.64l7.68-1.72,1.92-.42,1.86-.51,3.73-1a173.27,173.27,0,0,0,27.85-10.11,110.15,110.15,0,0,0,22.92-14.23c1.61-1.4,3.16-2.83,4.79-4.2,1.47-1.48,2.89-3,4.4-4.47,1.34-1.57,2.64-3.17,4-4.73C2033.28,1766.9,2034.43,1765.29,2035.65,1763.71Zm70.92,41.49c-2.18,3.67-4.41,7.34-6.7,11-2.42,3.41-4.85,6.84-7.38,10.2-2.66,3.2-5.33,6.43-8.09,9.56-2.87,3-5.74,6-8.7,8.88-3,2.73-6.08,5.49-9.18,8.16q-4.76,3.75-9.58,7.45-4.91,3.39-9.88,6.73c-3.34,2.09-6.71,4-10.09,6.06a259.82,259.82,0,0,1-41.48,18.61l-5.24,1.8-2.62.9-2.62.79-10.48,3.1c-7,1.78-14,3.64-20.91,5-7,1.6-13.88,2.69-20.83,3.95-6.89,1-13.84,2.12-20.69,2.81-13.79,1.7-27.42,2.56-41,3.24a790,790,0,0,1-80.53-1.13c-53.08-3.32-105-11.13-156.12-21.11s-101.43-22.7-151.15-36.87c-99.36-28.61-196.29-63.76-291.19-103.52-23.7-10-47.34-20.17-70.77-30.76l-8.8-4-8.77-4-17.53-8c-11.64-5.46-23.32-10.86-34.9-16.45q-69.66-33.21-137.72-69.73l-17-9.18c-5.66-3.06-11.32-6.13-17-9.26l-16.91-9.34-16.84-9.5-8.42-4.75L829.1,1571l-16.76-9.65c-11.12-6.56-22.29-13-33.35-19.68q-66.54-39.69-131.34-82.82c-86.31-57.66-170.19-120-250.34-189.14q-30-26-59.36-53.32t-57.59-56.61c-18.87-19.49-37.41-39.63-55.51-60.63s-35.74-42.89-52.62-66.1a756,756,0,0,1-47.84-74.47l-2.8-5-2.72-5.12-5.42-10.25-5.24-10.57-2.6-5.3-2.52-5.47-5-11-4.75-11.36c-.77-1.91-1.59-3.74-2.33-5.73l-2.24-5.89L86.56,877l-1.1-2.95-1-3.06-4.14-12.27c-1.33-4.18-2.57-8.49-3.83-12.74s-2.39-8.68-3.51-13.12l-1.66-6.67c-.28-1.1-.53-2.25-.77-3.41l-.73-3.48-1.43-7c-.47-2.33-1-4.61-1.32-7.07-.79-4.84-1.56-9.68-2.27-14.54-.6-5-1.14-10.1-1.65-15.16l-.18-1.9-.13-2-.24-4-.41-7.9-.17-4,0-4.11,0-8.22c0-5.39.4-11.19.77-16.84l.3-4.25.16-2.13.25-2.19c.35-2.92.71-5.84,1.1-8.76l.59-4.37c.2-1.46.4-2.91.7-4.42q.83-4.47,1.72-8.94l.92-4.47c.32-1.49.6-3,1-4.48q1.17-4.53,2.41-9l1.26-4.51c.43-1.5.83-3,1.36-4.5q1.52-4.54,3.12-9l1.62-4.5c.55-1.5,1.09-3,1.74-4.48q1.88-4.45,3.85-8.9l2-4.42,1-2.21c.34-.72.7-1.39,1.06-2.09q2.11-4.17,4.46-8.24l2.35-4,1.18-2,1.27-2q2.53-3.94,5.13-7.84l2.62-3.88c.45-.65.86-1.29,1.35-1.94l1.45-2c2-2.6,3.93-5.17,5.94-7.73,3.93-5.19,8.27-9.91,12.59-14.67s8.89-9.1,13.47-13.46a267.35,267.35,0,0,1,58.08-40.73,317.84,317.84,0,0,1,57.54-23,379.68,379.68,0,0,1,53.57-11.43l6.43-.9,3.22-.43,3.14-.34,12.57-1.28c4.14-.35,8.21-.6,12.32-.88,2-.13,4.11-.29,6.13-.39l6-.22c16.15-.72,31.62-.46,46.93.05a808.34,808.34,0,0,1,87.77,8.71c28.21,4.35,55.57,9.85,82.39,16.1s53,13.31,78.88,20.93S707,543.32,732.05,552s49.82,17.86,74.32,27.4c97.92,38.21,191.81,82.33,283.13,130.2q34.2,18,68,36.66c22.47,12.5,44.85,25.11,67,38l8.32,4.83,8.29,4.88,16.56,9.77c11,6.6,22,13.13,32.93,19.83,21.91,13.27,43.59,26.84,65.22,40.54,86.65,55.1,170.84,113.86,251.8,176.86q60.78,47.18,119,97.66,29.12,25.18,57.39,51.41t55.76,53.32c36.55,36.27,71.93,73.87,105.47,113.37q25.15,29.64,48.76,60.8c15.69,20.82,30.8,42.2,45,64.39s27.57,45.11,39.82,69c6,12,11.92,24.11,17.23,36.7l2,4.68c.66,1.57,1.28,3.18,1.92,4.76l3.83,9.55c2.36,6.51,4.85,12.92,7,19.6,2.29,6.56,4.19,13.39,6.18,20.15l2.65,10.37c.46,1.71.84,3.48,1.2,5.25l1.13,5.29a269.27,269.27,0,0,1,5.5,44.14,195.67,195.67,0,0,1-3.74,47c-.88,4-1.9,7.95-2.9,11.92-1.18,3.94-2.48,7.88-3.78,11.82-1.49,3.88-3.1,7.74-4.69,11.6C2110.45,1797.57,2108.52,1801.4,2106.57,1805.2Z"/><path class="cls-3" d="M2071.11,1784.45a121.22,121.22,0,0,0,13.38-34.93,145.46,145.46,0,0,0,3-37.27,202.77,202.77,0,0,0-5.23-37l-1.08-4.54c-.36-1.52-.73-3-1.19-4.52l-2.59-9c-2-5.91-3.87-11.82-6.17-17.61-2.11-5.84-4.68-11.51-7.09-17.23l-3.93-8.45c-.66-1.41-1.3-2.82-2-4.21l-2.1-4.16c-5.49-11.14-11.69-21.92-18-32.62-12.81-21.27-26.87-41.75-41.64-61.68-29.56-39.86-62.12-77.49-96.54-113.3s-70.73-69.85-108.14-102.58q-28-24.57-57-48t-58.62-46.09q-59.32-45.16-121.16-86.89c-82.34-55.67-167.46-107.12-254.64-154.58-21.84-11.83-43.75-23.56-65.81-35-11-5.76-22.09-11.34-33.14-17l-16.64-8.35-8.32-4.17-8.35-4.11c-22.23-11-44.61-21.7-67-32.26s-45-20.75-67.63-30.8S988.08,808.5,965.25,799s-45.79-18.57-68.79-27.46C850.41,753.91,804,737.4,757.25,722.66q-35.06-11.08-70.34-20.86T616.21,684c-47.19-10.71-94.6-19.18-141.37-23.53a660.43,660.43,0,0,0-69.11-2.85c-11.24.3-22.43.72-33.23,1.85l-4.08.37c-1.35.15-2.67.33-4,.5-2.65.34-5.34.64-8,1l-7.8,1.26-2,.3-1.9.38L341,664a205.33,205.33,0,0,0-28.63,7.67,136.15,136.15,0,0,0-23.89,10.94A81.53,81.53,0,0,0,271,696.15a63.88,63.88,0,0,0-11.28,16.1c-.38.76-.76,1.52-1.16,2.27-.09.19-.21.37-.28.56l-.21.56-.43,1.12c-.29.74-.6,1.47-.92,2.2a6.77,6.77,0,0,0-.4,1.15l-.35,1.17c-.25.77-.5,1.54-.77,2.31s-.39,1.64-.6,2.44-.41,1.64-.63,2.45-.29,1.72-.46,2.57-.31,1.73-.48,2.59a9.56,9.56,0,0,0-.18,1.35l-.13,1.37-.32,2.74-.09.68,0,.73-.05,1.45c-.07,1.94-.31,3.8-.2,5.87l0,3v1.51l.12,1.59.2,3.17c.08,1.06.05,2.08.22,3.2.26,2.19.51,4.38.73,6.57.38,2.26.76,4.52,1.09,6.79.14,1.12.41,2.29.65,3.44l.71,3.49a262,262,0,0,0,8,28.76c3.41,9.79,7.08,19.72,11.53,29.7l1.6,3.74,1.74,3.74,3.45,7.5,3.69,7.49,1.84,3.75,1.95,3.74,3.9,7.49,4.1,7.47c2.67,5,5.62,9.94,8.47,14.91,1.4,2.5,2.92,5,4.41,7.43l4.49,7.42c3.1,4.91,6.2,9.83,9.36,14.73,25.51,39.19,54.82,77.13,86.08,113.85,15.64,18.37,31.84,36.4,48.39,54.21s33.63,35.23,51,52.48c69.41,68.92,143.94,133.73,221.56,195,19.43,15.29,39,30.45,58.83,45.29s39.8,29.53,60,43.93c10.06,7.26,20.25,14.33,30.39,21.49l15.31,10.59,7.66,5.29,7.7,5.23c20.5,14,41.26,27.68,62.08,41.26q62.63,40.52,127.13,78.21c10.73,6.32,21.55,12.46,32.37,18.63l16.3,9.13,8.15,4.56,8.19,4.49c21.81,12,43.85,23.67,66,35.11q66.51,34.18,135,64.52c45.66,20.11,92,38.83,139,55.62,23.52,8.37,47.18,16.36,71.05,23.73l17.92,5.45,18,5.25,18.07,5,18.12,4.75q36.3,9.33,73.14,16.4c6.13,1.22,12.29,2.25,18.44,3.38s12.33,2,18.5,3,12.37,1.77,18.56,2.66,12.4,1.57,18.61,2.26a709,709,0,0,0,74.85,4.35c12.5-.1,25-.4,37.47-1.44,6.25-.37,12.45-1.17,18.68-1.79,6.18-.89,12.4-1.6,18.55-2.78,6.18-1,12.27-2.43,18.38-3.75l9.08-2.37,2.27-.59,2.24-.69,4.49-1.39a212.18,212.18,0,0,0,34.69-14.2,150.19,150.19,0,0,0,30.84-21.26A124.34,124.34,0,0,0,2071.11,1784.45Zm0,0a124.61,124.61,0,0,1-23.76,29,150.61,150.61,0,0,1-30.81,21.37,214.88,214.88,0,0,1-34.63,14.52l-4.49,1.42-2.24.71-2.27.62-9.08,2.45c-6.11,1.38-12.21,2.85-18.39,3.91-6.14,1.27-12.37,2.08-18.56,3.06-6.23.7-12.44,1.6-18.7,2.06-12.49,1.23-25,1.67-37.57,2a737.58,737.58,0,0,1-75.21-2.81c-50-4.31-99.65-12.77-148.76-23.34l-18.39-4.1-18.34-4.33-18.3-4.51-18.25-4.71q-36.45-9.66-72.56-20.58c-96.24-29.26-190.69-64.61-283.36-104.28s-183.63-83.75-272.63-131.75-176-100.12-260.37-156.79-166-118.09-243.26-185.73c-38.64-33.82-76.16-69.25-112-106.91q-26.93-28.2-52.4-58.27c-17-20.07-33.39-40.84-49.07-62.51a735.68,735.68,0,0,1-44.13-68.41L181,922l-2.46-4.6-4.92-9.21-4.71-9.42-2.33-4.72-2.24-4.84-4.43-9.69-4.17-9.94c-1.42-3.29-2.7-6.71-4-10.12l-1.92-5.11-1-2.56-.89-2.63-3.52-10.51c-1.11-3.56-2.13-7.2-3.18-10.79s-2-7.31-2.89-11l-1.35-5.57c-.47-1.84-.79-3.8-1.19-5.7l-1.13-5.73c-.37-1.91-.77-3.8-1-5.78q-.9-5.89-1.72-11.8l-1.16-12.11c-.22-2-.24-4.12-.35-6.18l-.24-6.21-.1-3.11,0-3.18.11-6.36c0-4.19.44-8.57.77-12.88l.28-3.23.14-1.62.23-1.64.94-6.57.5-3.28c.16-1.1.32-2.18.57-3.29l1.4-6.62c.51-2.2.92-4.39,1.53-6.6l1.91-6.6c.68-2.19,1.25-4.39,2-6.57l2.41-6.52,1.24-3.25c.41-1.08.82-2.16,1.32-3.22l2.92-6.38,1.49-3.17.75-1.58c.26-.51.54-1,.81-1.51l3.33-6,1.68-3,.85-1.49.92-1.44,3.72-5.76c2.39-3.83,5.3-7.56,8.14-11.27s5.94-7.19,9-10.66,6.41-6.63,9.71-9.85A200.06,200.06,0,0,1,232,580.52,252.71,252.71,0,0,1,277.08,562a316.43,316.43,0,0,1,44.34-10l5.46-.84,2.73-.4,2.7-.32,10.81-1.25c3.58-.35,7.14-.61,10.71-.91,1.78-.14,3.57-.3,5.34-.41l5.3-.27c14.17-.84,28-.8,41.85-.57a755.9,755.9,0,0,1,80.81,6.73c26.4,3.61,52.34,8.33,77.93,13.82s50.84,11.76,75.81,18.65,49.66,14.36,74.12,22.31,48.66,16.46,72.68,25.31c96.05,35.5,189,77,279.65,122.64s178.88,95.25,265,148.07,170,109.77,250.69,170.66,158.18,126,230.88,196.15c36.29,35.14,71.4,71.54,104.53,109.72q24.86,28.63,48.09,58.63c15.45,20,30.27,40.56,44,61.84a685.79,685.79,0,0,1,37.63,65.93c5.51,11.41,10.9,22.86,15.56,34.63l1.79,4.38c.59,1.47,1.12,3,1.68,4.44l3.32,8.88c2,6,4.15,11.94,5.9,18,1.94,6,3.41,12.16,5.05,18.25l2.07,9.23c.37,1.54.64,3.09.91,4.64l.85,4.66a227.72,227.72,0,0,1,3.54,37.55,156.94,156.94,0,0,1-4,37.37A128.07,128.07,0,0,1,2071.11,1784.45Z"/><path class="cls-4" d="M1140,347c-438,0-793,355-793,793s355,793,793,793,793-355,793-793S1578,347,1140,347Zm0,1460c-368.37,0-667-298.63-667-667s298.63-667,667-667,667,298.63,667,667S1508.37,1807,1140,1807Z"/><circle class="cls-4" cx="1140" cy="1140" r="600"/><path class="cls-5" d="M1713.39,1217c0-1.28-.05-2.55-.08-3.81A34.51,34.51,0,0,1,1713.39,1217Z"/><path class="cls-5" d="M1717,1249c-6.82.2-3.78-11.49-4-16C1715.38,1238.23,1714.56,1243,1717,1249Z"/><path class="cls-5" d="M869,609.74c-6.6,10.7,4.47,1,8.79-1C873.1,632.56,826.91,624.08,869,609.74Z"/><path class="cls-5" d="M1730.85,1105.15c-2-130.15-60.33-267-150.93-365.11-11.3-13.78-63.59-70.91-41.44-33.21-15.1-22-43.22-27.72-64.48-38.93-28.34-25.66-37.11,13.38-25.44,37.32,14.32,23.79-15,34.19-5.76,54.57,14,12.42,24,54.23,41.07,16.56,5.62,11.59,28.83,24.5,26.29,35.62-12.24,4.67,6.56,9.48-.38,13.76,10.66,5.8,1.84-5.43,5.11-10.32,6,5,5.95,5,8.11-1.42,16.32-6.26-3.4-18.47-.77-30.15,8.23-17-17.8-18.26-21.08-32.62-6.88-10.09,5-20.38-3.76-29.11-10.13-8.29.86-15.5,8.41-6.67,7,17.65,12.2,57.26,40.16,53.87,9-8.27,28.38,3.71,11.09,6.48-24.21.61,7.29,15.29,5.91,26.73-15.78-16-14.2,5.91-4.37,13.64,6.46,5.76.25,8.78-1.75,11.8-2.89,4.4-4.31-1.05-6.3-2.3-10-2.08-16.55,16.26-28,4.53-10.06,2.78-15.74,2.65-21.84-6.1.53-5.12,5.43,1.93,5.71-1.86.36-4.3-4.76-5-7.09-7.66,2-9.2-6-12.83-9.73-20.54-19.6,18.68,27.4,40,1.6,45.59-19.52-3-5.2,23.53-23,25.51-3.4.76-2.45,3-1.87,5,.52,7.82-12.18,17.62-18.37,8.21-7.5-1.83-.74,10.06-15.32,7.48-24.54,16.21,32.35,20.81,25.67,44.67-4.65,37.29-72.35-28.38-52.59,44.9-7.77,33.22,23.8,48.62,52.11,43.08,32.55-3.16,17.75-35.13,36.52-49,13-1.87,3.21-23,15.31-20.59,26,1.93,23.3-23.57,42.25,7.7,16.39,11.86,44.17,16.84,41.11,44.29,10.66-10.36,1.24-14.4,1.94-23.38,4.39-4.89,6.76,6.18,10.12,2.91-14-18.66-39.25-28.23-45.68-52,13.47,4.2,19,20.27,33,23.87,11.94,17.22,23.85,36,32,55.46,8.86,23,26.66-7.19,13.31-18.83-5.43-5.76-2.84-11.32,4.73-12.91,1.34,14.55,7.92,30.57,18.95,41.32,35.52,5.26,30.74,5.58,30,41.85-.14,10.29-22.48,7.91-30.38,5-8.32.92-9.58-8.47-18.78-10.93-20.06-11.28-14.58,17.65-21.19,24.7-5.63-5.2-11.06-11.57-19.37-11.44-6-18.69-24.66-9.91-36.57-22.31-8.12-7.87,9.83-9-1.89-26.11,10.46-18-60.17-2.45-71.36-1.5a45,45,0,0,1-52.16,7.12c-17.16,24-33.88,31.8-33.47,63.69-28.23,15.23-43.09,42.63-56.1,70.9-10.41,22.46,20.39,44.33-1.59,67.83-5.57,8.54-1.94,12.13,2.13,17.53-6,4.68-7.89,13.67.16,18.29,20.32,9.24,17,40.88,39,45,13.8,33.57,48.48,13.58,75.52,17.51,13.5-2.33,35.92-21.65,46.44-7,8.26,24.85,35.94-4.66,25,33.89-27.94,23.3,4.47,49.11-7.6,73.83-.39,30.52-32.3,47.12-38.73,73.94-11.16,19-9.23,47-26.86,63.72-5.4,16.59-10.54,34.45-26,46.71,14.8,28.32,124.73-64.8,136.58-91.83,51.7-31.26,65.72-90.66,96.13-138.9,23-18.76,31.51-51.4,41.5-78,.86-11.19,16.39-35.57-.41-36.17,4-16.28.14-28.43,2-47.49C1719.65,1321.66,1745.08,1124.4,1730.85,1105.15Zm-43.06-141.51c-34.55-22-37.67,37.62-39.85-46.5,7,5,6.26,17.5,15.15,17.3C1676,931.64,1690.8,953.24,1687.79,963.64Zm25.6,253.31c0-1.28-.05-2.55-.08-3.81A34.51,34.51,0,0,1,1713.39,1217Z"/><path class="cls-5" d="M1563.09,1555.89c16-25.51,40.47-53.57,63.42-75.34C1608.17,1508,1587.33,1533.39,1563.09,1555.89Z"/><path class="cls-5" d="M1044.93,1708.27c6.6,2.48,12.61,6,19.74,7.45C1056.72,1720.05,1051.2,1718.08,1044.93,1708.27Z"/><path class="cls-5" d="M1713.39,1217c0-1.28-.05-2.55-.08-3.81A34.51,34.51,0,0,1,1713.39,1217Z"/><path class="cls-5" d="M1717,1249c-6.82.2-3.78-11.49-4-16C1715.38,1238.23,1714.56,1243,1717,1249Z"/><path class="cls-5" d="M785.53,680.64a.41.41,0,0,1-.23.11Z"/><path class="cls-5" d="M1067.07,662.05a10.49,10.49,0,0,1-3.91-1.29A25.56,25.56,0,0,0,1067.07,662.05Z"/><path class="cls-5" d="M785.53,680.64a.41.41,0,0,1-.23.11Z"/><path class="cls-5" d="M830.74,720.92c-.62.78-1.24,1.51-1.87,2.19C829.46,722.43,830.08,721.7,830.74,720.92Z"/><path class="cls-5" d="M1072.4,566.94c-40.08,4.91-78.57,27.08-113,42.9-12.57,1.93-28.56-4.63-38.9,3.73,7.55,8.85,23.14-4.36,28.85,4.28-1.36,14.34-64.19,12.55-39-2.55,8.13-1.71-5.31-13.12,7.7-10.44,13.88,6.45,22.82-6.43,35.41-6.41,4.46,1.52,3-3.44,4.13-6.75-4.55.33-9.4,5.93-12.35,1.42C957.6,571.71,1060.63,546.72,1072.4,566.94Z"/><path class="cls-5" d="M992.23,701.21c-10.47,3.54-20.82,26.65-29.67,12.11-7.85-13.85-5.85-10.52-15.17-2.13,6.85,11,17.62,21.76,3.38,32.7-4.23,1.74-14.86-8.22-8.63-2.46,9.65,24.73-33.29,4.48-37-8.46-7.17-9-18.76-4.57-28-7.55-.23-13.51,18.72-6.77,27.05-10.79-1.55-12.64,10.79-12.28,19-16.77,11.33-10.85-7.2-22-11.67-32.78-3,7.64-51.26,6.26-40.08-6.71,10.38-19.2,57.6-39.83,22.45-10.44,12.49-6.59,23.41-16.88,40.15-13.71,12.4-2.21,12.26,7.67.09,8.68,15.82-1.3,16.93,16.41,29.69,18.7,6,.51-2.29,5.55,3.83,6.62,8.24,1.43-2.66,3.62-.79,6.72,11.28-.18-.92,9.36-6.88,6.13-2.54,5.27,8.64,1.67,6.41,6.73C977.8,686.92,981.3,700.61,992.23,701.21Z"/><path class="cls-5" d="M904.8,608.69c-7.77,6-14.34,10.08-22.21,12.93C884.21,609,884.21,609,904.8,608.69Z"/><path class="cls-5" d="M937.76,591.41c-3.77,5.14-11.74-.21-17.27,4.15C916.27,588.38,934.7,581.36,937.76,591.41Z"/><path class="cls-5" d="M825.71,672.14c3.22,8.49-9.21,15.94-12.26,8.43C814.74,674.52,821.05,675,825.71,672.14Z"/><path class="cls-5" d="M1213.13,666.75c-.24-3.76,5-2.17,4.19-5.71-5.13-4.71,3.24-6.74,5.58-2,4.1,6.45,9.84,6.18,16.45,4.38-2.45-16.59-23.64-11-29.83-26.74,7.78-3.64,16.39,4.2,24.11-2.32-10-8.1,8.94-3-6.55-14.1.35-17.26-29.88-7.1-.18-17.65-19.78-7.76-23.7-3.13-16.05-24.43-3.62-4.23,9.5-6.6,1.56-10.34-10-6.31-22.44,9.23-29.85-2-2.09,2.21-20.87,2.29-16.16-.38,36.84-4.79-41.16-15.49-53,0-22.22-4-51.25,3.13-68.81,13.68.36,14.22-53.72,7.45-34.4,19.59,21.39.64,2.6,4.53-10.4,4.51,8,9.3,11.77,10.56,24.06,8.17,22.69-7,40.08,29,20.51,39.7.68,10,10.42-.14,15.05.81a8.64,8.64,0,0,0,3.76,9c.51.42,5.23,1.63,3.11,1.15-13.15-7.32-19.08.4-23.63,11,17.62,11.41,13.83-10.33,21.32.82-20.83,11.8-34.45,35.18-13.27,54.4-1.25,26.28,31.65,44.36,53.85,42,4.78-4.69,13.19-12.84,12.6-21.48-.27-2.58-4.71-6.24,1.79-7.09,7.82-1.78,9.48-9.41,9.38-16.2-3.86-8.54,6.64-3.52,4.26-12.51,6.78.8,13.21,1,15.23-7.69-1.84,14.13,21.38,1,26.91-7.8,7-14.74,21.66-7.51,33.46-13.28C1231.09,678.93,1245.8,662.43,1213.13,666.75Zm-146.05-4.7a.12.12,0,0,0,.1-.13C1067.37,660.83,1067.82,662,1067.08,662.05Z"/><path class="cls-5" d="M1416.57,873.57c9.65-14.66,19.47-11.42-2.48-16.54,15-11.11-7.54-12.64,4.87-16.15,3.38.48,6.06-.7,4-4.34-4.86-16.86-19.07-2.93-19.89-23.42-7.77,10.87-1.84,4.67-11.58-12.93-2.16-13.46-.79-15.37,14.47-13.61-7.24,7.73-3,9.36,4.36,8.38,16.54-1.21-1.46,15.24,11.2,19.89,13.25,6.39,20.8,23.87,31.37,29.85,12.73-1.35,4.43,11.91,5.78,16.66,11.69,5.95-6.25,6.65-9.67,6.69C1439.24,863.63,1418,880.32,1416.57,873.57Z"/><path class="cls-5" d="M1254.25,730c11.82-6-11.83-7.58-11.11-10.09,3.08-2,10.21.92,9.59-2.91-1.38-7.51-8.94-.37-13.41-2.68,6.71-20.14,12.45-1.77,22.9-1.72a17.63,17.63,0,0,1,17.11-4.27c10.39-7.22,19-.54,27.9,6.91,7.42,6.84-6.88,12.78-12.47,15C1282.53,739.82,1266.08,731.67,1254.25,730Z"/><path class="cls-5" d="M1369.86,830.81c6.75-1.4,14,2.57,12.17-7.64,2.69-4.74,29.72-3,19.15,10.2-2.22,7,12.93,18.35-3,20.79-7,5.75-30.24,9-19.68-4.6-.86-2.79,5.72-7.77-2.66-8.81C1371,840.15,1376,833.47,1369.86,830.81Z"/><path class="cls-5" d="M1538.48,706.83c0-.07-.15-.12-.1-.22Z"/><path class="cls-5" d="M1132.57,712.88h0Z"/><path class="cls-5" d="M1132.57,712.88h0Z"/><path class="cls-5" d="M1534.74,791.56c2.59,3.55,3.63,6.27,2.75,10.57C1533.17,799.59,1531.5,797.11,1534.74,791.56Z"/><path class="cls-5" d="M1307.7,576.4c5.49-.37,36.15,4.2,21.79,9.9,3.74,3.49,11.93,5,12.88,8.21,11.16,13.59,11.61,10.1-5.28,7.7-1.57-4.31-8.34-4-8.73-9.6,0-.32-2.34,1.28-3.33,2.38C1315.1,593.43,1287.64,584.75,1307.7,576.4Z"/><path class="cls-5" d="M1215.94,640c5.59.87,10-2.53,12.81,2.73C1229.84,650.7,1219.43,646,1215.94,640Z"/><path class="cls-5" d="M1342.37,594.51c-2.7-6.34,14.47,2.59,18,4.8C1353.31,601.17,1348.66,595.06,1342.37,594.51Z"/><path class="cls-5" d="M817.23,1265.91s0,0,0,0Z"/><path class="cls-5" d="M1177.5,1410.79c-3-12.84-15.62-7.56-23.18-13.92-16.24-18.83-41.36-9.12-60.64-19.84-13.2-9.54-24-12.39-36.81-7.54-1.82-8.41-16.44-10.18-23.29-3.92,2-2.77,5.24-5,3.86-8,14.67-.79,1.47-16.25-5.16-20.15.77-26.32-41.42-30.92-61.84-26.58-12.06-9.89-24.28-23.21-36.31-30.75-7-4.61-19.78-1.11-10.26-12.48-31.27,19.64-64.56-11.79-74.08-5.13-2.87,5.46-18.23,9.08-11.08-1.33,10.81-15.27-16.35,4.72-21.48,4.76-2.1,4.53-9.49-2.35-9.83,3.91-.4,7.68-5.52,13-8.24,19.38-25.46-23.34-52.42,13.87-55-39.84,5-60.86-57.39,5.67-33.75-73.4,1.15-4.53.13-7.39-5.53-7.75-25.18-3.32-16.18,22-35.39,26.51-10.76,7.42-17.72-12.76-21.27-22-11.56-20.19.34-50.33,2.42-75.2,26.53-28,27.49,1.33,41.59-9.26,2.8-9.89-7.65-8,8.82-9.09,12.85-5.5,20.42,8.51,32.3,3.81,11.13,13.19,5.2,32.5,18.36,45.33,25.74,3.77-11.1-49.57,3.94-64.52,15.77-21.93,61.19-30.8,45.06-64.65,2.72,6.59,10.7,4.58,12.8-1.34,8.06-20,27.58-25.42,43.5-34.18,3.19-9.23-3.85-18.48,6.74-19.29,51.53-28.79,14.94,9.14,44.2-1.63,10.88-10.46,52.19-12.91,43-29-1.09-18.49-21.22,16-32.31,0-4.68-4.25-7-18.17-.27-18.28,12.53-16-14.89-17.18-24.19-10.89,15-8.4,30-11.7,46.73-7.58,14.86-.46,58.45-12.25,60.54-29.22,1.75-10.19-8.49-11.28-12.47-17.42-2.83-10.88-19.53-12.62-27.44-15.61-5.1-89.6-28.61-19.8-45.35-33.08-9.45-8,6.57-21.57-9.22-26.21-7.07-6.75-13.11-15.67-24.34-10-6.67,3.83-13.46-5.45-20.13,2.39-4.25,12.35-3.22,27.68-19.06,33.42-1.79,1.58-2.69,3.89-1.68,5.78,15.63,30.75-16.85,27.15-23.14,47.32.08,12.78-2.09,29.1-18,26.82.41-13,9.9-38.74-5.32-43.5-14.64-2.38-23.54-16.63-35.34-22.54-5.29-20.86,11.67-31.39,22.29-45.83,16.76-6.79,31.47-15.89,46.59-26.18-24.48,22.7,9.28,12.22,21.57,12.56,21.14,3.24-5.69-22.79,6-24.71,12.8-5.49,49.75-32.23,25.74-42.26-12.05-1.28-17.52,13-27.63,17.32,5.08-3.83-.88-14.54-5.47-7.86,20-41.82,11.6-22.8,45-47.39-10.37-3-17.49,2.49-26,7.92,9.63-17.64-11.35.52-16.91,1.87-10,2-8.74,8.16-10.92,13.76,5.65,1.95,9.13-5.3,14.32-1.73-8.81,5.4-18.61,8.69-20.31,22-.67,14-12.83,9.19-24.12,11.52-8.23,16.15-31.29-3.71-13.29-5.55,9.51-.13,13.21-10.26,21.48-12.59-.3-4.71-.25-10.12,4.68-12.75,6.32-9.49,36.08-26.44,11.72-16-11.44,5.81-13.45-.15-4.33-7.14-153.23,85.84-300.09,282.84-261.48,471.66,3.36,14.93,6.86,34.38,16.37,48.27-5.75-28.31-14-56.08-13.6-85.25,9.79,21.77,8.43,50.56,21.89,73.07,11.54,35.1,15.33,68,54.6,82.84,10.72,5.21,14.56-10.22,25,4.55C688.3,1249,723,1244.54,727.79,1275c12.13,9.19,30.4,23,45,25.15,1.82-4.38-5-5.73.87-11.88,12.84-11.36,35.34,46.22,22.93,52.13-8.14,13-21.85,32.88-3.24,44.61,2.48,12.9-11.05,1.79-.05,28.07,37,19.79,46.81,72.19,88.38,84.43,42.4,16.09,30,67.92,53.81,96.25,16.13,21.7,16.72,52.92,43.31,67.36,3.23,5.49,12.28,10.09,11.5,16.35-2.52,3.81-1.34,4,2,6.07,10,7.74,61.13,42,44.65,18.67-4.71-9.23-6.94-20.43-19-23.83,2.69-6.7.38-16-4.53-20-13.91-12.8,14.21,2.89,6.15-9.44-6.16-12.62,26.94-5.66,20.4-24.57-8.79-8.12,18.5.4,21.14-24.54,24.08-21,7.75-56.09,50.44-56.91,31-9.09,27.71-52.13,35.92-74.89C1160.27,1451.47,1188.3,1435.4,1177.5,1410.79ZM806.63,936.48c9.14,3.33-6.42,7.36-10.78,6C797.87,939.21,806.94,945.21,806.63,936.48Zm24.11-215.56c-.62.78-1.24,1.51-1.87,2.19C829.46,722.43,830.08,721.7,830.74,720.92Zm-45.21-40.28a.41.41,0,0,1-.23.11Zm-7.86,3.46c4.54,2.61-8.53,10.71-11.52,6.83C760,688.65,775.75,687.12,777.67,684.1ZM759,964.34c-5-5.09,11.39-6.28,15.72-8.74C770,958.5,762.81,958.86,759,964.34Zm-1.33-47.6c5.55,1.36,8.88,4.76,14.62,5.26,4.09-4.26,6.58,1,9.59,5.4-11.08-5.73-10.46,9.12-17.77,10.54-2.94-1.12-2.31-2.78-1.5-5.07C767.32,922,752.26,913,745.2,922.44c-8.1,5.18-10.26,13.26-12.9,21.18C724.4,978,729.1,907.44,757.7,916.74ZM723.21,901.2c12.47-1.79,26.24-18.57,30.73,3.62,2.5,11.9-1.17,1.9-9.4,6.39-7.7,4.69-10.43-12.23-17.59-3.29C722,906,719.8,910.21,715.19,906,719.33,906.6,721.61,904.4,723.21,901.2Z"/><path class="cls-5" d="M772.42,1159.62c19.47,13.71,56.19,28.91,9.52,23.23-5.54-15.65-24.92-16.06-35.94-24.58-.6-2.62-5.07-2-7.91.25C710.57,1177.29,739.62,1135,772.42,1159.62Z"/><path class="cls-5" d="M848.36,1187.26c32.2,20.18-2.54,4.65-12.34,17.08-8.09-7.93-20.59.55-26.21-5.77,4.87-5.14,26.57,4,7.3-13.61C828,1185.39,840,1181.46,848.36,1187.26Z"/><path class="cls-5" d="M786.68,1204.07c-7.28,3.2-15-8.16-5.33-6.87C788.91,1196.52,798.47,1204.47,786.68,1204.07Z"/><path class="cls-5" d="M880.23,1203.33c-2.46-.52-6.63,1-7.11-3.42C874.66,1190.33,897.31,1203,880.23,1203.33Z"/><path class="cls-5" d="M922.22,690.3c-7.2-2.84-10.52,6.45-17,5.32C890.11,692.18,916,680.62,922.22,690.3Z"/><path class="cls-5" d="M830,747.62c-.64-5,8.27-8.48,12-6.21C841.93,746.69,834.41,748.52,830,747.62Z"/><path class="cls-5" d="M855.7,746.12c-.32,4.52-2.59,7.08-7.3,7.86C848.05,749.27,852.14,745.6,855.7,746.12Z"/><path class="cls-5" d="M1541.67,969.5c9.89-4.41,14.72,19.18,3.15,21.86C1542.43,985.2,1536.15,973.47,1541.67,969.5Z"/><path class="cls-5" d="M1591,999.39c1.23,18.05-.42,16.63-14.31,6.63C1562.63,998.36,1584.51,998.74,1591,999.39Z"/><path class="cls-5" d="M1542.1,965.61c-3.57-5-6.75-9.94-.94-16.23C1544.62,953.79,1545.77,962.45,1542.1,965.61Z"/><path class="cls-5" d="M1642.13,1025.67l14.29,4C1649.14,1033.22,1645.09,1030.48,1642.13,1025.67Z"/><path class="cls-5" d="M1682.25,1033c-1.07-4.68,3.74-4.85,6.24-9.41C1689.46,1029.29,1686.39,1038.28,1682.25,1033Z"/><path class="cls-5" d="M894.15,884.64a9.51,9.51,0,0,0,4.87-1.81C897.37,883.37,895.75,884,894.15,884.64Z"/><path class="cls-5" d="M899,882.83a9.51,9.51,0,0,1-4.87,1.81C895.75,884,897.37,883.37,899,882.83Z"/><path class="cls-5" d="M972.14,883.92c8.2-17.67,39.68-37.23,13.94-6.68,4.4-.74,9.9-5.17,8.92,3.28-.16,1.39,4.26,3.1,7.87,2,17.46-6.15-.54,10.63,13.41,8.56-7.79,8.44-13.13,12.44-25,17.76,13.64-18.74-37.74,1.1-27.46-13.5C965.27,890.45,970.11,888.23,972.14,883.92Z"/><path class="cls-5" d="M1009.12,900.58c6.44.63,4.38-12.34,9.12,5.06C1013.09,914.69,1001.26,908.58,1009.12,900.58Z"/><path class="cls-5" d="M921,876.07c8.59,1.29,15.1,2.27,20.39,7.2C934.19,885.58,930.88,884.53,921,876.07Z"/><path class="cls-5" d="M932.67,914.14c-7.35,4-12.54,2-15.28-5.53C920.93,913.92,926.76,913.15,932.67,914.14Z"/><g class="cls-6"><ellipse class="cls-7" cx="1140" cy="1140" rx="494.6" ry="602.5"/><ellipse class="cls-8" cx="1140" cy="1140" rx="310.32" ry="602.5"/><ellipse class="cls-7" cx="1140" cy="1140" rx="117.44" ry="602.5"/><ellipse class="cls-9" cx="1140" cy="1144.32" rx="602.5" ry="498.92"/><ellipse class="cls-10" cx="1140" cy="1126.22" rx="602.5" ry="324.1"/><ellipse class="cls-11" cx="1140" cy="1140" rx="602.5" ry="134.76"/></g><circle class="cls-12" cx="1140" cy="1140" r="602.5"/><text class="cls-13" transform="translate(942.69 1867.28) rotate(13.3)">U</text><text class="cls-13" transform="translate(993.78 1879.13) rotate(9.47)">S</text><text class="cls-13" transform="translate(1041.39 1887.18) rotate(5.21)">A</text><text class="cls-13" transform="translate(1103.81 1892.23) rotate(1.84)"> </text><text class="cls-13" transform="matrix(1, -0.02, 0.02, 1, 1129.81, 1893.17)">|</text><text class="cls-13" transform="translate(1151.84 1893) rotate(-1.75)"> </text><text class="cls-13" transform="matrix(1, -0.1, 0.1, 1, 1179.28, 1892.8)">M</text><text class="cls-13" transform="translate(1253.83 1884.73) rotate(-10.2)">E</text><text class="cls-13" transform="matrix(0.97, -0.24, 0.24, 0.97, 1298.73, 1876.71)">X</text><text class="cls-13" transform="translate(665.31 620.89) rotate(-40.47)">H</text><text class="cls-13" transform="translate(701.51 590.4) rotate(-37.83)">.</text><text class="cls-13" transform="translate(715.96 579.12) rotate(-36.19)"> </text><text class="cls-13" transform="matrix(0.84, -0.54, 0.54, 0.84, 732.13, 566.2)">W</text><text class="cls-13" transform="matrix(0.89, -0.46, 0.46, 0.89, 790.52, 529.16)">O</text><text class="cls-13" transform="translate(840.85 503.25) rotate(-23.39)">R</text><text class="cls-13" transform="translate(879.37 486.56) rotate(-20.07)">L</text><text class="cls-13" transform="translate(915.72 473.03) rotate(-16.48)">D</text><text class="cls-13" transform="translate(962.82 459.41) rotate(-13.6)"> </text><text class="cls-13" transform="translate(983.52 454.11) rotate(-10.97)">P</text><text class="cls-13" transform="translate(1024.46 445.82) rotate(-6.98)">A</text><text class="cls-13" transform="translate(1075.56 439.38) rotate(-2.98)">C</text><text class="cls-13" transform="matrix(1, 0.02, -0.02, 1, 1127.52, 436.7)">K</text><text class="cls-13" transform="matrix(1, 0.08, -0.08, 1, 1170.55, 437.04)">A</text><text class="cls-13" transform="matrix(0.99, 0.15, -0.15, 0.99, 1221.86, 441.17)">G</text><text class="cls-13" transform="matrix(0.98, 0.2, -0.2, 0.98, 1274.38, 449.77)">I</text><text class="cls-13" transform="matrix(0.97, 0.25, -0.25, 0.97, 1289.87, 452.47)">N</text><text class="cls-13" transform="matrix(0.95, 0.32, -0.32, 0.95, 1339.17, 465.04)">G</text><text class="cls-13" transform="translate(1389.33 482.39) rotate(21.73)"> </text><text class="cls-13" transform="translate(1409.31 490.06) rotate(24.32)">S</text><text class="cls-13" transform="translate(1446.87 506.87) rotate(27.87)">U</text><text class="cls-13" transform="matrix(0.85, 0.52, -0.52, 0.85, 1487.33, 528.25)">P</text><text class="cls-13" transform="matrix(0.82, 0.57, -0.57, 0.82, 1523.3, 550.17)">P</text><text class="cls-13" transform="matrix(0.79, 0.62, -0.62, 0.79, 1557.96, 574.31)">L</text><text class="cls-13" transform="translate(1589.07 599.03) rotate(40.44)">I</text><text class="cls-13" transform="translate(1601.44 609.23) rotate(42.7)">E</text><text class="cls-13" transform="translate(1630.2 635.63) rotate(45.95)">S</text><rect class="cls-14" x="1856.56" y="1647.24" width="262.13" height="241.46" transform="translate(3246.98 4111.13) rotate(-159.91)"/><rect class="cls-14" x="1687.8" y="1725.07" width="262.13" height="241.46" transform="translate(2893 4204.08) rotate(-159.91)"/><polygon class="cls-14" points="2152.19 1699.61 1984.08 1777.67 1737.9 1687.63 1906.01 1609.56 2152.19 1699.61"/><polygon class="cls-15" points="2152.19 1699.61 1984.08 1777.67 1901.13 2004.44 2069.25 1926.37 2152.19 1699.61"/><path class="cls-16" d="M2059.64,1665.75l-168.11,78.08-14,38.25a.07.07,0,0,1-.13,0l-.93-16-11.19,11.79a.07.07,0,0,1-.12,0l-.94-16.22L1853,1773.32a.06.06,0,0,1-.11,0l-1-16.23-11.18,11.79a.07.07,0,0,1-.12,0l-.94-16.23-11.19,11.79a.07.07,0,0,1-.12,0l-.94-16.22-11.06,11.65a.07.07,0,0,1-.11-.07l14.32-38.68,167.46-77.76Z"/><path class="cls-3" d="M1794.41,1871.25c-44.2-2.16-88.25-7.66-131.93-15.17-5.49-.85-10.91-2-16.36-3l-16.33-3.1c-10.87-2.19-21.7-4.53-32.56-6.79l-32.4-7.52-32.25-8.14c-42.92-11.19-85.41-24-127.52-38s-83.76-29.31-125.14-45.4q-123.84-48.92-243.05-109c-79.37-40-156.86-83.75-232.74-130.47-4.74-2.93-9.51-5.81-14.22-8.78L775.76,1487c-4.71-3-9.47-5.88-14.15-8.91l-14.1-9q-28.18-18-56.07-36.6l-7-4.64-6.93-4.7-13.88-9.4c-4.64-3.12-9.23-6.32-13.82-9.51L636,1394.68c-9.18-6.41-18.25-13-27.38-19.45l-27.14-19.84-13.43-10.13c-4.48-3.38-9-6.72-13.39-10.2-8.84-6.92-17.77-13.71-26.49-20.81q-26.36-21-51.88-43.16-51.07-44.27-98.52-93.14l-5.91-6.13-5.85-6.18c-3.92-4.11-7.79-8.27-11.66-12.44q-11.56-12.54-22.89-25.36-22.56-25.72-43.94-52.76c-28.35-36.16-55-74.21-78.08-115.38q-8.67-15.45-16.61-31.49c-5.24-10.74-10.26-21.67-14.86-32.88a408.94,408.94,0,0,1-22.42-70.83A295.64,295.64,0,0,1,150,786.05a228.12,228.12,0,0,1,.4-40.44,187.23,187.23,0,0,1,9-41.16,157.8,157.8,0,0,1,19.51-38.28A36.44,36.44,0,0,1,242.6,700.5l-1.12,2.8a99,99,0,0,0-6.07,22.15,121,121,0,0,0-.95,23.75c1,16.4,5,33.77,11.1,51.22,3,8.73,6.56,17.5,10.53,26.23s8.22,17.47,12.94,26.12,9.67,17.26,14.9,25.8,10.76,17,16.4,25.43c22.78,33.65,48.69,66.16,76.12,97.71q20.63,23.63,42.36,46.61c7.26,7.64,14.54,15.27,22,22.79,3.7,3.78,7.39,7.56,11.14,11.3l5.6,5.62,5.65,5.58c30.11,29.81,61.17,58.93,92.81,87.6q23.74,21.48,47.9,42.66t48.69,42.05c65.43,55.65,133.41,109,204.29,158.53q53.11,37.21,107.8,72.33l13.67,8.78c4.55,2.93,9.15,5.79,13.72,8.69,9.14,5.82,18.36,11.51,27.57,17.22s18.46,11.35,27.71,17,18.55,11.22,27.9,16.7q55.89,33.25,113.1,64.34l7.15,3.91,7.17,3.84L1217,1645c9.61,5,19.19,10.14,28.85,15.08,19.27,10,38.7,19.67,58.21,29.21l14.65,7.13c4.89,2.36,9.81,4.65,14.71,7,9.83,4.61,19.61,9.36,29.52,13.79l14.83,6.75c4.94,2.25,9.88,4.52,14.86,6.67,10,4.33,19.89,8.75,29.87,13q59.87,25.83,121.24,48c40.92,14.73,82.31,28.19,124.29,39.68a1194.65,1194.65,0,0,0,127.58,28h.05a6,6,0,0,1-1.24,11.93Z"/><text class="cls-17" transform="translate(449.5 1520)">W<tspan class="cls-18" x="573.99" y="0">P</tspan><tspan x="978" y="0">S</tspan></text></svg>