<svg id="Layer_1" data-name="Layer 1" xmlns="http://www.w3.org/2000/svg" viewBox="0 0 1000 1000"><defs><style>.cls-1{fill:none;stroke-width:80px;}.cls-1,.cls-2{stroke:#12213b;stroke-linecap:round;stroke-linejoin:round;}.cls-2{fill:#12213b;stroke-width:60px;}</style></defs><path class="cls-1" d="M708.44,367.27a266.69,266.69,0,0,1-98.89,207.54,262.65,262.65,0,0,1-31.82,22.24,265.83,265.83,0,0,1-136.56,37.49c-147.6,0-267.27-119.67-267.27-267.27S293.57,100,441.17,100,708.44,219.67,708.44,367.27Z"/><path class="cls-2" d="M826.1,856.76a43.23,43.23,0,0,1-80.35,22.15l-168-281.86a262.65,262.65,0,0,0,31.82-22.24l206.87,254.7A43.07,43.07,0,0,1,826.1,856.76Z"/></svg>