<svg id="Layer_1" data-name="Layer 1" xmlns="http://www.w3.org/2000/svg" viewBox="0 0 1000 1000"><defs><style>.cls-1{fill:#eff3fa;stroke:#eff3fa;stroke-linecap:round;stroke-linejoin:round;stroke-width:10px;}</style></defs><path class="cls-1" d="M772.74,744.16c6.35,4.76,23.26,21.59,25.41,28.59,12.71,41.29-49.23,85.76-58.76,90.52-31.76,15.89-57.18,27-71.47,30.18-102.77,22.84-193.76-23.82-249.66-82.68C319.81,707.12,258.17,580.29,258.17,580.29c-49.23-114.06-48.83-186.16-58.62-297.61-7.1-80.91,42.74-156.32,134.85-178.55l20.49-2.93.18,0a117.86,117.86,0,0,1,20.63-1.81c19.65,0,40.05,3.35,57.72,10.77a45.51,45.51,0,0,1,27.91,42.21l-.65,121a51.46,51.46,0,0,1-29.18,47.87,134.53,134.53,0,0,1-46,12.76l-16.17,3.59L362.39,341a44.3,44.3,0,0,0-20.24,34,168.1,168.1,0,0,0,19.57,91l122.4,228c13.68,25.69,53.73,32.87,79,18.39l38.12-31.77c9.94-10.29,21.31-14.35,34.13-17.42A45.85,45.85,0,0,1,673.63,671Z"/></svg>